<svg width="54" height="49" viewBox="0 0 54 49" fill="none" xmlns="http://www.w3.org/2000/svg">
<path d="M15.7646 48.0146C24.4631 48.0146 31.5147 40.8511 31.5147 32.0147C31.5147 23.178 24.4631 16.0146 15.7646 16.0146C7.06617 16.0146 0.0146484 23.178 0.0146484 32.0147C0.0146484 40.8511 7.06617 48.0146 15.7646 48.0146Z" fill="#04E061"/>
<path d="M42.7647 45.7286C47.7353 45.7286 51.7646 41.6351 51.7646 36.5857C51.7646 31.5362 47.7353 27.4429 42.7647 27.4429C37.7941 27.4429 33.7646 31.5362 33.7646 36.5857C33.7646 41.6351 37.7941 45.7286 42.7647 45.7286Z" fill="#FF4053"/>
<path d="M18.5624 14.8571C21.9798 14.8571 24.75 12.0429 24.75 8.57136C24.75 5.09986 21.9798 2.28564 18.5624 2.28564C15.1452 2.28564 12.375 5.09986 12.375 8.57136C12.375 12.0429 15.1452 14.8571 18.5624 14.8571Z" fill="#965EEB"/>
<path d="M39.3896 26.3004C46.2241 26.3004 51.7646 20.4161 51.7646 13.1575C51.7646 5.89889 46.2241 0.0146484 39.3896 0.0146484C32.5551 0.0146484 27.0146 5.89889 27.0146 13.1575C27.0146 20.4161 32.5551 26.3004 39.3896 26.3004Z" fill="#00AAFF"/>
</svg>
