<svg width="52" height="48" viewBox="0 0 52 48" fill="none" xmlns="http://www.w3.org/2000/svg">
<path d="M27.8566 14.3658C29.4816 11.392 30.9518 8.6667 32.4426 5.99115C33.0476 4.86397 33.705 3.82693 34.4081 2.89076C35.2618 1.80155 36.0485 1.84223 36.8146 3.13481C37.5926 4.50314 38.306 5.97985 38.9477 7.55038C39.6879 9.29492 40.3018 11.2112 41.349 12.8247C42.6902 10.3932 44.0495 8.25091 45.2747 5.87364C46.0051 4.418 46.7957 3.05848 47.64 1.80607C48.1631 1.09743 48.757 0.565619 49.3913 0.237796C50.6964 -0.494366 51.496 0.48185 51.6972 2.92239C51.7556 3.69256 51.7858 4.4685 51.7875 5.24543C51.8391 10.4158 51.8958 15.5816 51.9242 20.7519C51.9603 27.0792 51.9706 33.4066 51.9887 39.7339C51.9887 41.4152 52.0248 43.1009 51.968 44.7777C51.8932 47.0374 51.2613 48.0769 49.9742 47.9956C48.7981 47.9278 47.6245 47.6295 46.4483 47.4216C45.9324 47.3312 45.4166 47.1459 44.9007 47.1052C37.0828 46.4725 29.2675 45.7991 21.4496 45.2703C18.7207 45.085 15.984 45.2161 13.2551 45.3019C12.2187 45.379 11.1855 45.554 10.1599 45.8262C7.82048 46.346 5.4862 46.938 3.14419 47.4352C1.78747 47.7289 1.12716 46.6171 1.05494 44.1585C0.985298 41.8355 0.83054 39.5215 0.797008 37.1984C0.722208 29.7006 0.660305 22.2027 0.652567 14.7048C0.665306 11.0878 0.446415 7.47976 0 3.94832C0.964664 2.23091 1.31287 2.00493 2.21821 3.04442C3.44339 4.47259 4.61955 6.03634 5.79314 7.6001C7.02605 9.24068 8.22286 10.9626 9.45061 12.6168C9.78175 13.0049 10.1263 13.3566 10.4823 13.6698C11.0343 12.9015 11.5553 12.219 12.0531 11.4824C13.8922 8.7345 15.7055 5.87364 17.5961 3.20712C19.1282 1.04227 20.9673 1.35412 22.3214 3.90765C23.936 6.93121 25.5068 10.018 27.0983 13.0732C27.2917 13.4438 27.5136 13.7738 27.8566 14.3658ZM49.2804 43.7427C49.4661 31.3321 49.6234 19.3373 49.4506 7.31989C49.4506 6.86793 49.3139 6.41598 49.1489 5.36745C47.9949 7.12097 46.9035 8.99709 45.8809 10.9852C44.8723 12.8563 43.869 14.7319 42.9662 16.4086C40.8512 17.1137 39.933 16.8018 38.2641 13.0009C37.6348 11.5682 37.1215 9.9864 36.5257 8.4814C36.2436 7.84939 35.9413 7.24583 35.6203 6.67359L29.1102 18.5283C27.0673 19.161 25.7235 17.3442 24.6092 14.7183C24.3196 13.9692 24.007 13.248 23.673 12.558C22.4762 10.2983 21.4006 7.84415 19.9768 5.94143C17.7328 8.28706 15.8808 11.2338 14.0727 14.289C13.4382 15.3601 12.7212 16.2776 12.0454 17.2764C11.2716 18.4244 10.3869 18.3068 9.53573 17.7283C8.99638 17.3217 8.49269 16.7831 8.03973 16.1284C6.70622 14.2574 5.41656 12.3411 4.07274 10.5061C3.81481 10.1627 3.4666 10.0542 3.02296 9.73783C3.02296 11.1208 3.01006 12.1377 3.02296 13.1591C3.08744 17.6786 3.16482 22.1982 3.22672 26.7177C3.27057 30.0802 3.26283 33.4427 3.33763 36.8007C3.3789 38.6085 3.52592 40.4163 3.66779 42.197C3.67809 42.3917 3.71102 42.5805 3.76453 42.752C3.81805 42.9235 3.89102 43.074 3.97897 43.1942C4.06691 43.3144 4.16797 43.4019 4.27591 43.4511C4.38386 43.5004 4.49642 43.5104 4.60666 43.4806C4.82598 43.436 5.04381 43.3711 5.25922 43.2862C10.6649 41.8931 16.13 41.3351 21.5914 41.6185C24.764 41.7677 27.9314 42.0163 31.1014 42.2377C36.7062 42.6264 42.3111 43.0331 47.9056 43.7427C48.2693 43.7879 48.633 43.7472 49.2881 43.7472L49.2804 43.7427Z" fill="#FFC0CB"/>
</svg>
