<svg width="60" height="50" viewBox="0 0 60 50" fill="none" xmlns="http://www.w3.org/2000/svg">
<path d="M37.2882 2.33028C41.8262 2.40781 45.3902 1.02852 49.1786 4.54231C51.1802 6.34367 53.2133 8.05254 54.8975 10.4691C56.5157 12.7523 57.8754 15.3708 58.9293 18.2334C59.9009 20.9217 60.2232 23.9819 59.8472 26.9507C59.3153 31.7758 57.7712 35.7002 55.1463 39.0496C50.7084 44.715 45.6644 48.3338 39.7482 49.6084C38.0554 49.9703 37.3128 48.393 35.6286 48.8353C33.201 49.4746 29.9575 50.5815 27.6957 49.6285C24.3977 48.2292 21.2922 46.0539 18.5112 43.1951C16.9156 41.5867 15.1828 40.0307 14.0505 37.8755C12.7952 35.4991 11.3026 34.9482 9.45538 34.8558C7.56243 34.7593 5.69522 34.7834 3.90807 35.861C3.23036 36.269 2.53845 36.6286 1.83498 36.9386C1.55706 37.0494 1.26012 37.0166 0.997889 36.8462C0.735654 36.6759 0.525437 36.3792 0.405266 36.0098C-0.0608222 34.5824 -0.235248 33.0866 0.488189 31.7557C1.16887 30.4629 1.93478 29.2634 2.77574 28.1731C5.02749 25.3152 7.66051 23.1147 10.5219 21.6994C11.9059 21.0239 12.6465 19.89 13.0268 17.9077C13.4018 16.1406 13.9128 14.4364 14.5509 12.8253C14.9582 11.7041 15.5054 10.6949 16.1665 9.84586C20.6418 4.36677 25.6131 3.18586 31.4929 2.06243C32.9484 1.78097 35.827 2.55545 37.2882 2.33028ZM5.34923 30.6982C6.15273 30.7665 6.46441 30.8711 6.75893 30.8067C8.39739 30.4288 10.0101 30.7424 11.6343 31.0038C14.2935 31.434 16.5125 32.588 17.682 36.4078C18.374 38.6636 19.735 40.2438 21.1934 41.5867C24.3988 44.5421 27.9502 46.1866 31.7075 47.023C32.5939 47.216 34.2477 45.4669 35.1227 45.3704C39.0467 44.9436 42.1483 45.6878 45.7588 43.4846C48.7772 41.6425 51.4741 38.8984 53.6622 35.4428C55.1291 33.1268 56.0213 30.5253 56.7018 27.6704C57.4224 24.6508 57.1364 21.7557 56.2357 18.9451C55.8828 17.909 55.4686 16.9164 54.9976 15.9777C53.5936 13.0425 51.5291 11.1848 49.5332 9.1422C43.6685 3.17119 36.9666 5.93664 30.1268 7.90688C26.3638 9.02469 23.3036 8.00429 20.1354 10.8873C17.6292 13.1643 15.8551 16.7283 15.1914 20.8189C15.0702 21.7181 14.7833 22.5568 14.3593 23.2511C13.9352 23.9455 13.389 24.4711 12.7752 24.7754C12.2433 25.077 11.6857 25.2901 11.1596 25.6077C9.21518 26.7859 7.33368 28.1328 5.34923 30.6982Z" fill="#FFC0CB"/>
</svg>
