<svg width="48" height="48" viewBox="0 0 48 48" fill="none" xmlns="http://www.w3.org/2000/svg">
<path d="M11.2379 22.8288C10.5272 22.5231 10.1041 22.3559 9.69451 22.1652C7.86744 21.3233 6.30178 20.0343 5.15397 18.4271C3.67843 16.3686 3.39906 14.1429 4.15853 11.8023C4.88273 9.54273 6.70275 8.03544 9.76503 8.71986C11.7017 9.15088 13.5108 10.1044 15.3743 10.8332C15.716 10.969 16.0388 11.1493 16.3019 11.2747C16.8661 10.9612 16.7738 10.5589 16.6925 10.2298C16.0415 7.46074 17.102 5.07835 18.545 2.81089C18.9634 2.18201 19.5074 1.63947 20.1453 1.21479C23.2971 -0.916821 28.7762 -0.140975 31.1604 2.74298C31.9741 3.70429 32.4216 4.78839 32.3023 6.06056C32.2128 7.00882 32.1667 7.95969 32.088 9.09864C32.8149 8.73553 33.3655 8.48214 33.8944 8.19479C36.8509 6.58041 39.9214 6.44979 43.0894 7.52082C43.5354 7.65188 43.9737 7.80623 44.4022 7.9832C45.1759 8.31758 45.8658 8.80839 46.4251 9.4223C46.9844 10.0362 47.3999 10.7588 47.6435 11.5411C48.281 13.4011 48.0097 14.9736 47.2557 16.7082C45.7611 20.1851 43.1274 22.3873 39.5145 23.6412C39.1736 23.7852 38.8405 23.9456 38.5164 24.1218C39.1429 24.5017 39.7923 24.8454 40.4611 25.1511C42.4097 25.9104 44.1853 27.0294 45.6879 28.4451C46.9531 29.576 47.7143 31.1348 47.8117 32.7946C47.9419 35.2371 45.9537 37.7971 43.3688 38.4319C41.9009 38.8107 40.3663 38.8865 38.8658 38.6542C37.3654 38.4219 35.9328 37.8868 34.662 37.0839C33.9595 36.6581 33.2679 36.2193 32.3592 35.6524C32.2806 36.2245 32.1558 36.5693 32.2019 36.8932C32.6169 39.866 31.9659 42.7003 30.8457 45.4301C30.3277 46.7049 29.3566 47.6062 27.7509 47.8204C26.5846 47.9797 25.4671 48.1077 24.3061 47.8648C22.8427 47.5778 21.5571 46.7436 20.7312 45.5451C19.3479 43.5911 18.4501 41.4673 18.4148 39.064C18.4148 38.0191 18.4148 36.9742 18.4148 35.7203C18.0989 35.8419 17.797 35.9951 17.5143 36.1775C15.1383 38.1968 12.4503 39.644 9.31478 40.2004C5.92158 40.8038 3.03017 39.9391 0.803302 37.3008C0.201152 36.5798 -0.219268 34.3933 0.122493 33.2178C0.5619 31.7079 1.13421 30.2502 2.17035 28.9859C4.34026 26.3736 6.90347 24.3125 10.256 23.2676C10.4784 23.2023 10.6764 23.0848 11.2379 22.8288ZM31.7842 22.7452C33.4686 22.4447 34.9062 22.2227 36.3302 21.9275C37.011 21.7917 37.6647 21.5435 38.3428 21.3894C41.2911 20.718 43.1274 18.8111 44.4836 16.3346C45.4899 14.4825 45.0478 12.7036 44.1635 10.9925C43.8587 10.4709 43.3812 10.0626 42.8074 9.83269C41.226 9.20574 39.6366 8.88443 37.8518 9.31023C34.8004 10.0521 34.3637 12.3658 32.5735 14.5C32.3592 15.733 31.3665 16.7918 30.7182 17.7871C30.0266 18.8555 29.9778 19.0932 30.8457 19.8769C31.7489 20.7128 31.437 21.2927 31.7842 22.7452ZM16.9773 25.0962C16.7463 25.0265 16.5118 24.9681 16.2748 24.9212C13.9394 24.592 11.8346 25.4436 9.79216 26.2796C7.07977 27.3793 5.04548 29.3098 3.70013 31.8672C3.11316 33.0071 2.84663 34.2753 2.9271 35.5453C2.9705 36.5458 3.39906 37.2694 4.46774 37.5071C5.13959 37.6668 5.81948 37.7932 6.50474 37.8859C8.85367 38.1628 10.869 37.1257 12.9168 36.282C13.6185 35.9786 14.2643 35.5675 14.8291 35.0646C16.3216 33.7645 17.618 32.2698 18.6807 30.6238C18.9185 30.1983 19.1234 29.7565 19.2937 29.302C18.7756 28.5758 18.2684 27.9958 17.9158 27.3428C17.5612 26.6098 17.2479 25.859 16.9773 25.0936V25.0962ZM27.5095 17.7871C27.7831 17.3699 27.546 16.7869 27.7509 16.3346C28.4534 14.506 27.7238 12.5077 28.4751 10.7C29.164 9.04639 29.0583 7.3249 29.1342 5.61909C29.1213 5.17878 28.9895 4.74931 28.7518 4.37303C27.816 2.75865 24.4472 1.76076 22.733 2.54444C22.5901 2.60989 22.4599 2.69822 22.3478 2.80567C20.5061 4.53238 19.2367 6.52032 19.63 9.1326C19.9772 11.4471 20.8207 13.6231 21.8569 15.7208C22.6977 17.4318 25.2365 18.0326 27.5095 17.7871ZM31.3855 28.3148C31.928 29.7437 31.6594 30.4252 32.5735 31.4388C34.6221 33.7965 37.4052 35.4555 40.51 36.1696C41.222 36.3556 41.9721 36.3589 42.6858 36.1792C43.3995 35.9996 44.052 35.6433 44.5785 35.1456C44.9108 34.8827 45.1483 34.5255 45.2574 34.1249C45.3665 33.7244 45.3416 33.3009 45.1861 32.9147C44.6138 31.3474 43.7892 29.9681 42.311 28.965C39.5986 27.1364 38.1735 27.5517 35 26.8177C34.4195 26.6845 33.0075 26.8177 32.3592 26.8177L31.3855 28.3148ZM27.0104 30.4618L22.8143 30.8145C21.0323 35.0725 20.3569 39.2182 22.6272 43.4135C22.8227 43.8184 23.0628 44.202 23.3433 44.5576C24.0702 45.3936 25.0683 45.9787 26.156 45.8899C27.3494 45.7906 27.8268 44.7536 28.2581 43.7478C28.9823 42.0551 29.1342 40.2918 29.2752 38.5024C29.5085 35.5766 28.6867 32.9539 27.0104 30.4618ZM20.167 18.3565C19.272 17.3116 18.4718 16.3164 17.5794 15.3942C16.9529 14.749 16.2748 14.0515 15.4828 13.6623C13.698 12.795 11.8183 12.0949 9.97389 11.3504C9.75917 11.2653 9.53542 11.2031 9.30664 11.1649C7.42967 10.841 6.13857 11.8676 6.05177 13.6884C6.00024 14.9371 6.32301 16.0395 7.23166 16.9616C8.28407 18.0405 9.14932 19.3597 10.671 19.8769C12.4178 20.4699 14.2134 20.9375 15.9927 21.4442C16.6654 21.6297 17.3489 21.7238 18.0514 21.3189L20.167 18.3565ZM28.6758 23.5393C28.7061 23.0215 28.6173 22.5036 28.4157 22.0226C28.2141 21.5417 27.9046 21.1096 27.5095 20.7572C26.7771 20.0676 25.882 20.0597 24.9571 19.937C23.0964 19.6914 21.591 20.7755 21.0269 22.3716C20.678 23.2735 20.4351 24.2102 20.3027 25.1641C20.1806 26.2848 20.7421 27.1651 21.8189 27.6902C23.6118 28.5653 25.4969 28.2571 26.8531 26.8177C27.7834 25.8198 28.5999 24.7409 28.6758 23.5393Z" fill="#FFC0CB"/>
</svg>
