<svg width="48" height="48" viewBox="0 0 48 48" fill="none" xmlns="http://www.w3.org/2000/svg">
<path d="M23.9503 4.39653C25.9355 3.20563 27.6881 1.99836 29.9574 1.53183C35.3099 0.365481 42.9231 2.8987 46.3594 8.69768C47.513 10.6641 48.0774 12.8934 47.9915 15.1433C47.901 17.9343 47.4575 20.664 46.1441 23.3036C44.4099 26.9347 41.8925 30.1791 38.7548 32.8267C37.1745 34.1322 35.7104 35.5645 34.13 36.87C31.3655 39.1454 29.4794 41.9937 27.8905 45.0549C27.5625 45.7992 27.094 46.4802 26.5082 47.0643C24.9709 48.3902 23.959 48.337 22.8953 46.7123C19.1921 41.0607 14.1367 36.6408 8.93488 32.3315C1.89436 26.4548 -0.555825 18.8265 0.103013 10.2078C0.382911 6.51232 2.45846 3.55758 5.59763 1.41314C6.72134 0.699519 8.01523 0.264767 9.36119 0.148582C14.4252 -0.338418 19.2308 0.234523 23.0418 3.94636C23.3252 4.12943 23.6301 4.28051 23.9503 4.39653ZM22.2925 9.38521C22.1206 9.29797 21.959 9.19372 21.8102 9.07418C21.6595 8.89412 21.5346 8.69359 21.4011 8.50124C14.5 3 12.6656 2.68079 10 3.94636C9.31774 3.95391 8.97953 4.4199 8.36215 4.69597C7.74478 4.97204 7.19702 5.37096 6.75598 5.86571C5.49428 7.33899 4.50818 9.00052 4.41345 10.9281C4.168 16.1377 5.59763 20.9341 9.0856 24.9897C10.864 27.0604 13.0257 28.8447 15.1142 30.6618C18.2017 33.3505 21.2676 36.0392 23.5413 39.436C23.9305 39.909 24.3628 40.3486 24.8331 40.7496C25.1733 40.4754 25.5479 40.3117 25.6943 40.0375C27.8603 36.2889 31.0038 33.3341 34.2764 30.4735C35.7276 29.2049 37.2261 27.9812 38.5826 26.6225C41.4504 23.7578 43.3581 20.3447 43.6681 16.3546C43.9049 13.3221 42.893 10.5597 40.417 8.50124C38.73 7.10746 36.6595 6.20023 34.4487 5.88618C31.3784 5.43601 28.2952 5.32142 26.1077 8.18612C25.2852 9.2788 23.9159 9.66349 22.2925 9.38521Z" fill="#FFC0CB"/>
</svg>
