<svg width="16" height="16" viewBox="0 0 16 16" fill="none" xmlns="http://www.w3.org/2000/svg">
<path d="M5.24012 2.01458C7.0772 2.17353 8.00577 -0.219704 9.71004 0.259644C9.76711 0.270195 9.82452 0.281972 9.88219 0.295029C11.3631 0.585809 12.6425 1.77846 13.0244 2.65311C13.4592 3.55189 13.4383 4.18558 13.4047 4.70184C13.2976 5.72323 13.0442 6.3848 13.1233 7.39567C13.1435 7.6761 13.1269 7.95627 13.1008 8.16335C13.0405 8.92806 12.4561 9.99468 11.8011 10.4607C11.1585 10.952 10.6701 11.0653 10.3492 11.1436C9.348 11.3559 8.52804 11.2671 7.5739 10.8395C6.41453 10.2808 5.84109 9.3538 5.51945 8.63754C5.32529 8.20267 5.18573 7.73591 5.10352 7.25719C4.92642 6.2903 5.43075 5.36184 5.97528 4.96413C7.17323 4.17474 7.76644 4.70214 8.86797 4.34811C8.94679 4.33003 9.04282 4.30846 9.16889 4.2895C9.5019 4.23074 10.1408 4.26542 10.6937 4.58497C11.2445 4.89703 11.5406 5.30407 11.7105 5.58071C12.0384 6.14943 12.077 6.46603 12.1142 6.75591C12.1666 7.40993 11.9785 7.85595 11.6828 8.3974C11.4418 8.81653 11.2687 9.45641 10.8625 10.3922C10.7042 10.7192 10.4743 11.1701 9.93598 11.4909C9.38657 11.8116 8.80799 11.744 8.4857 11.6787C7.98006 11.6149 7.3236 11.2014 7.03326 10.9071C7.01255 10.8876 6.97451 10.8107 6.95625 10.7889C6.79577 10.604 6.67082 10.4533 6.54742 10.3325C5.59692 9.33209 6.41957 8.10525 6.91991 7.49263C6.91805 7.45631 6.95638 7.35673 6.96301 7.32097C7.09852 7.15806 7.27524 6.98875 7.47418 6.88597C7.93647 6.67245 8.16189 6.8734 8.28314 6.97848C8.33724 7.03089 8.35912 7.14164 8.35944 7.25069C8.35944 7.25076 8.35944 7.25084 8.35944 7.25091C8.35987 7.38685 8.3213 7.51999 8.26419 7.53806C8.18032 7.56337 8.09316 7.61801 8.10523 7.67741C8.12064 7.73801 8.20834 7.74957 8.27649 7.82048L8.31356 7.67283C8.40761 7.85083 8.54038 8.03945 8.72248 8.22067C9.11339 8.60131 9.16608 8.772 9.14174 8.97689C9.11283 9.15602 9.05158 9.45925 9.16781 9.52837L9.07899 9.39214C9.11629 9.41046 9.11954 9.34576 9.08214 9.25413C9.05413 9.18158 9.03927 9.12567 9.06431 9.07413C9.08947 9.02659 9.04158 8.95239 8.89835 8.90893C8.75892 8.86323 8.51303 8.87448 8.30289 8.95251C7.86597 9.12609 7.71702 9.3117 7.61916 9.31297C7.40953 9.24886 7.39941 8.69083 7.67664 8.08229C7.7776 7.86206 7.76002 7.66724 7.69025 7.60051C7.6465 7.54849 7.4332 7.55193 7.64748 8.10657C7.75286 8.3771 8.17532 8.83034 8.64225 9.02557C9.10207 9.22745 9.37692 9.24573 9.45371 9.30542C9.5688 9.38505 9.64295 9.4547 9.77768 9.46569C9.91658 9.45255 10.0974 9.49575 10.5938 8.95512C10.8834 8.6251 11.1159 8.07386 11.1259 7.60818C11.1439 7.13771 11.003 6.79981 10.8398 6.59303C10.723 6.44908 10.5719 6.31967 10.3838 6.21905C10.1247 6.08044 9.85199 5.99692 9.60796 5.96707C9.10308 5.94798 9.10286 6.04802 8.87777 6.05026C8.85551 6.04071 8.65301 6.01832 8.2752 6.25027C7.88967 6.47052 7.51014 7.04576 7.38286 7.41403C7.16642 7.04421 6.83863 6.78008 6.53344 6.58802C6.38135 6.49858 6.23095 6.43271 6.11582 6.47135C6.01427 6.51774 5.88312 6.6496 6.10316 7.21563C6.22827 7.51628 6.51994 7.97404 7.02262 8.35239C7.51839 8.73622 8.15214 8.94156 8.57098 8.98081C8.15459 8.89965 7.74594 8.76965 7.41633 8.64343C7.25365 8.57985 7.11077 8.51826 7.0303 8.45532C6.9553 8.38728 6.92224 8.34171 7.13413 8.18609C6.85061 8.17735 6.63431 8.18045 6.57426 8.14016C6.50619 8.09436 6.65103 8.00759 6.93018 7.5829C7.05662 7.38481 7.20458 7.06065 7.2603 6.66735C7.29896 6.55836 7.32615 6.84114 7.37944 7.01218C7.43005 7.20739 7.49262 7.41736 7.55684 7.61437C7.68508 8.01398 7.81985 8.34094 7.84938 8.59045C7.86229 8.63205 7.84977 8.6393 7.82562 8.63702C7.72336 8.60658 7.55121 8.51802 7.57478 8.53493C7.58752 8.54123 7.73818 8.57319 7.95501 8.58503C8.75028 8.68358 10.0742 8.32634 9.94706 8.72171C9.9281 8.78783 9.87568 8.87395 9.79679 9.01037C9.67768 9.22984 9.66759 9.45583 9.74391 9.52479C9.81748 9.59983 9.94346 9.53804 10.0498 9.39943C10.2703 9.11792 10.4152 8.57452 10.4855 8.09035C10.5547 7.33394 10.5592 6.67428 10.5552 6.20836C10.5423 4.98605 10.2513 4.44925 9.38111 4.45044C9.26216 4.46256 9.14782 4.46568 9.01838 4.45915C8.40135 4.43443 7.73885 4.2091 7.08281 3.90069C6.97328 3.85282 6.89699 3.79102 6.81531 3.73673C6.73247 3.66153 6.61793 3.75084 6.52683 3.69375C6.4222 3.61538 6.45876 3.37894 6.52404 3.24571C6.58938 3.09972 6.69122 2.97433 6.82232 2.86927C7.59309 2.29165 8.21175 2.54224 8.60717 1.93057C8.80774 1.6309 8.99158 1.38238 9.16799 1.18894C9.92966 0.619362 10.9782 0.699319 11.7247 1.83882C12.1712 2.58148 12.6084 2.77519 13.1204 2.9497C13.6149 3.11639 14.1175 3.24899 14.2304 3.63337C14.3822 4.3515 13.8394 4.71881 14.9513 7.01369C15.0317 7.20304 15.1156 7.4051 15.2023 7.62678C15.9522 9.49838 16.1205 12.1126 14.1547 14.073C12.8492 15.26 11.9573 15.4343 11.2859 15.6769C9.98583 16.0736 8.21844 15.6771 6.48754 15.1903C5.84325 15.0068 5.13719 14.7997 4.336 14.4517C3.69257 14.2084 2.66568 13.3959 2.17756 12.6987C0.533436 10.4561 0.216967 8.10652 0.118664 5.88627C0.170606 5.11954 0.395999 4.48674 0.601498 4.03385C1.17495 2.85345 1.68671 2.4931 2.05825 2.2157C2.43909 1.9598 2.73478 1.87983 3.01149 1.85102C3.5592 1.80356 4.03341 1.97449 4.64529 2.04516C4.8522 2.02266 5.04868 2.01515 5.24012 2.01458Z" fill="#FFC0CB"/>
</svg>
