<svg width="181" height="149" viewBox="0 0 181 149" fill="none" xmlns="http://www.w3.org/2000/svg">
<path d="M163.662 126.065C163.935 127.686 167.545 125.951 168.265 127.576C168.988 129.202 167.632 130.751 169.273 131.887C170.491 132.727 170.952 134.249 171.599 134.994C171.829 135.258 172.074 135.422 172.377 135.432C173.576 135.489 171.779 137.285 173.025 137.781C174.266 138.267 174.528 139.012 174.682 140.336C174.818 141.667 176.736 144.435 178.286 144.35C179.786 144.272 179.793 146.452 180.226 147.292C180.355 147.55 180.413 147.814 180.428 148.056C180.434 148.158 180.361 148.308 180.264 148.438C180.264 148.438 180.263 148.438 180.263 148.438C180.143 148.6 179.986 148.73 179.903 148.7C179.5 148.553 178.819 148.458 177.792 148.606C175.863 148.856 176.639 147.579 174.737 146.884C172.837 146.158 171.008 146.342 170.075 144.119C169.201 141.947 166.157 144.096 165.566 140.553C165.56 140.508 165.553 140.463 165.548 140.416C165.055 136.7 161.922 139.138 159.485 137.211C157.058 135.291 156.159 130.977 154.815 129.734C153.471 128.489 151.504 126.964 150.185 124.691C148.862 122.414 145.77 120.93 144.569 118.214C143.811 116.505 142.808 114.398 141.994 112.633C141.506 111.581 141.076 110.64 140.805 109.95C140.08 108.115 139.859 107.637 138.26 106.888C137.287 106.467 136.727 105.545 136.115 104.494C135.637 103.973 135.566 103.226 136.425 102.947C137.861 102.684 138.404 103.582 139.341 103.121C141.261 102.308 142.144 102.157 142.394 103.777C142.599 105.37 144.631 104.064 144.959 104.767C145.253 105.429 144.404 106.313 146.975 107.916C147.129 108.012 147.297 108.112 147.482 108.218C150.659 110.041 152.116 111.265 153.187 112.064C154.256 112.862 155.172 115.698 156.903 116.989C158.64 118.282 161.19 121.765 162.87 122.585C164.552 123.406 163.387 124.442 163.662 126.065Z" fill="#FFC0CB"/>
<path d="M81.7694 74.5178C81.4089 74.4458 81.0586 74.4099 80.808 74.4074C80.5491 74.4011 80.3655 74.4497 80.4654 74.4369C80.9079 74.3167 81.4583 73.9298 81.7213 73.5871C81.999 73.242 82.0762 73.0218 82.1341 72.9369C82.232 72.7686 82.2851 72.9835 82.4299 73.2208C82.7051 73.7262 83.2121 74.4163 83.767 74.9031C85.6972 76.929 87.7709 78.1143 90.2814 80.0448C92.5482 81.7199 94.3062 82.8526 96.1441 83.8966C97.0752 84.4117 98.0518 84.8823 99.2672 85.3182C99.8749 85.5371 100.539 85.7434 101.35 85.9735C101.752 86.0892 102.208 86.2125 102.75 86.38C103.06 86.4775 103.335 86.5633 103.787 86.7457C104.197 86.9593 104.759 87.0105 105.939 88.1937C107.144 89.3474 108.376 92.2443 107.818 94.6055C106.775 98.7501 104.86 100.025 103.378 101.621C101.834 103.088 100.339 104.263 98.9833 105.361C96.2907 107.482 94.0253 109.581 93.638 110.667C93.2933 111.479 93.2559 112.2 93.4182 112.678C93.7001 113.475 93.7288 113.785 93.4952 113.958C93.2453 113.9 92.8403 114.002 92.9691 114.307C93.0831 114.595 93.6951 114.923 94.7611 114.939C95.2254 114.949 95.7359 114.898 96.2903 114.752C100.926 113.312 103.589 111.233 107.811 108.079C108.419 107.604 109.169 106.942 110.044 106.116C110.486 105.7 110.957 105.244 111.493 104.748C111.765 104.497 112.043 104.244 112.399 103.954C112.79 103.682 113.005 103.34 114.144 102.991C115.009 102.74 116.181 103.141 116.671 103.62C117.211 104.09 117.464 104.532 117.683 104.932C118.107 105.747 118.325 106.465 118.538 107.196C118.945 108.644 119.225 110.07 119.512 111.473C120.074 114.276 120.627 116.994 121.35 119.214C121.421 119.44 121.997 119.967 122.625 120.304C123.259 120.662 123.935 120.94 124.556 121.179C124.823 121.282 125.098 121.397 125.391 121.54C125.694 121.675 125.974 121.787 126.114 121.812C126.271 121.852 126.141 121.71 125.733 121.802C125.33 121.916 125.261 122.098 125.328 121.996C125.389 121.914 125.513 121.697 125.628 121.441C126.953 117.897 128.647 113.313 129.637 110.566C130.055 109.313 130.469 108.352 130.837 107.628C130.993 107.322 131.19 107.209 131.348 107.248C131.348 107.248 131.348 107.248 131.348 107.248C131.544 107.297 131.677 107.581 131.601 107.999C131.221 110.053 130.863 113.145 130.828 116.899C130.778 119.541 130.576 121.232 129.853 123.1C129.44 123.899 129.265 124.969 127.376 125.938C126.384 126.366 125.29 126.159 124.686 125.905C124.043 125.647 123.601 125.35 123.173 125.07C122.629 124.7 121.859 124.285 120.932 123.712C120.056 123.058 118.694 122.625 117.727 120.235C117.676 120.093 117.625 119.948 117.573 119.801C116.542 116.829 115.759 114.282 114.939 111.931C114.532 110.76 114.123 109.631 113.691 108.667C113.481 108.2 113.24 107.751 113.096 107.594C113.041 107.525 112.971 107.546 113.254 107.822C113.396 107.95 113.676 108.162 114.126 108.298C114.569 108.439 115.123 108.438 115.499 108.342C116.122 108.171 116.193 108.058 116.242 108.047C116.273 108.031 116.221 108.077 116.158 108.142C116.018 108.282 115.815 108.497 115.588 108.746C115.14 109.239 114.626 109.821 114.068 110.426C112.946 111.641 111.632 112.971 110.019 114.288C104.657 118.491 101.279 121.702 94.7407 122.478C93.7293 122.558 92.566 122.612 91.002 122.257C89.5103 121.94 87.1683 120.833 85.8555 118.609C83.7258 114.844 84.1413 110.886 86.0386 107.308C86.3836 106.665 86.7786 106.094 87.1974 105.575C92.1041 100.368 95.0858 98.8604 97.0617 96.3164C98.0265 95.1715 98.778 93.9683 98.9482 93.1376C99.0403 92.7497 98.8734 92.4633 98.6416 92.9272C98.5351 93.149 98.485 93.5769 98.5419 93.9523C98.5948 94.3336 98.707 94.6082 98.7305 94.7467C99.1149 95.1896 99.4553 95.4377 99.6506 95.5783C99.8298 95.707 99.953 95.7826 100.032 95.8351C100.165 95.9262 100.167 95.9509 100.123 95.9673C100.018 95.9928 99.7516 95.9787 99.4528 95.9645C98.8331 95.9299 98.0349 95.8695 97.1604 95.7731C95.3993 95.5761 93.3119 95.2434 90.9032 94.5185C84.4468 92.7632 76.7633 87.3961 73.6444 79.8889C72.8989 78.2078 72.3877 76.5752 72.1712 74.489C72.0869 73.428 72.0193 72.2658 72.4444 70.5747C72.7318 69.0317 74.5557 65.9667 77.4137 65.1895C79.8382 64.5376 80.9969 64.7757 82.1944 64.8338C83.3481 64.9378 84.3315 65.0968 85.2719 65.2587C87.1358 65.5867 88.7823 65.9363 90.3346 66.2412C93.4274 66.8578 96.0562 67.2966 98.1738 67.4721C101.883 67.7832 106.093 67.925 110.552 67.649C111.05 67.6175 111.477 67.5416 111.616 67.491C111.682 67.4695 111.661 67.4584 111.526 67.5235C111.396 67.585 111.143 67.7515 110.931 67.9874C110.716 68.2201 110.586 68.4736 110.55 68.5612C110.511 68.655 110.537 68.5986 110.567 68.4306C110.633 68.0906 110.707 67.3663 110.8 66.5287C111.252 62.7074 111.9 58.993 112.952 55.0084C113.088 54.5077 113.238 53.9707 113.438 53.3634C113.934 52.1905 114.196 50.1425 117.136 48.0662C120.352 46.1997 122.793 47.0555 124.225 47.3942C127.979 48.6861 129.584 50.0565 131.692 51.1224C133.561 52.2063 135.856 52.9235 135.872 52.7372C135.904 52.7674 137.333 52.189 138.664 51.2714C140.05 50.3632 141.572 49.2237 143.24 48.0741C146.584 45.9596 150.532 42.6857 157.188 43.3601C158.33 43.5302 159.476 43.8785 160.541 44.3943C162.718 45.4236 164.82 47.4408 165.59 50.3043C166.225 53.001 168.459 57.3979 169.936 61.5804C170.695 63.7554 171.444 65.9682 171.655 68.727C171.727 70.1019 171.705 71.7543 170.774 73.5399C169.849 75.3709 167.862 76.4939 166.429 76.7854C159.643 77.5824 155.816 76.5285 153.494 77.7582C152.989 77.9837 152.582 78.2595 152.243 78.5872C152.172 78.5057 151.952 78.9819 151.949 79.5402C151.927 80.1006 152 80.7187 152.105 81.3067C152.322 82.4918 152.66 83.603 153.036 84.6713C153.802 86.8211 154.765 88.8723 156.202 91.6397C156.596 92.4621 157.106 93.1954 157.414 94.6834C157.475 95.0901 157.517 95.6256 157.288 96.2683C157.064 96.9191 156.504 97.4726 156.025 97.7354C155.057 98.2587 154.328 98.2942 153.613 98.3598C148.953 98.7264 143.387 98.5818 138.721 99.012C137.262 99.1602 136.855 99.5701 136.662 99.2974C136.464 98.8597 137.446 97.8206 138.98 97.3032C143.499 95.7703 147.241 95.9932 149.51 94.8869C150.967 94.2054 152.166 93.6696 153.311 93.275C153.601 93.1306 153.838 92.9464 153.628 92.9176C153.524 92.9147 153.239 92.9635 152.819 93.3206C152.393 93.6615 152.024 94.387 151.961 94.8102C151.879 95.2438 151.92 95.4044 151.914 95.4293C151.914 95.4537 151.893 95.3572 151.85 95.214C151.763 94.9204 151.602 94.4407 151.414 93.8704C151.177 93.1726 150.948 92.3993 150.719 91.5238C149.344 85.4626 145.536 84.6277 145.774 78.1665C145.947 77.0567 146.421 75.7474 147.41 74.6655C148.757 73.3642 150.501 72.3036 153.379 71.6073C156.023 70.8179 160.835 71.1638 164.587 70.2746C164.757 70.1998 164.753 70.1291 164.625 70.1924C164.496 70.2479 164.361 70.4396 164.34 70.3996C164.356 70.1743 163.923 68.1989 163.225 66.7169C162.54 65.1378 161.714 63.5817 160.903 62.0958C159.267 59.0254 157.667 56.7064 156.328 53.0691C156.41 53.5102 156.555 53.5897 156.5 53.6244C156.117 53.5386 155.869 53.5662 155.267 53.7237C154.692 53.8851 153.941 54.2264 153.206 54.6512C151.976 55.3436 150.117 56.5199 147.694 58.1303C145.07 59.5919 142.901 62.1835 136.51 63.0162C131.693 62.979 129.379 61.1448 127.026 59.9485C124.824 58.6869 122.611 57.3196 121.575 57.0563C121.522 57.0439 121.478 57.0361 121.459 57.0367C121.216 56.9809 121.03 57.0035 121.269 57.0258C121.388 57.0315 121.644 57.0244 122.004 56.9065C122.36 56.7951 122.782 56.5426 123.037 56.3041C123.562 55.7918 123.479 55.6991 123.406 55.9831C123.317 56.2542 123.183 56.7831 123.047 57.3984C122.376 60.4627 121.761 64.1813 121.373 67.7151C121.045 69.0629 121.734 71.2765 118.929 75.0147C115.628 78.3672 112.841 78.0213 111.017 78.2659C105.338 78.5744 100.352 78.2705 97.1025 78.1884C87.9871 77.8871 87.9835 75.9269 81.7694 74.5178Z" fill="#FFC0CB"/>
<path d="M44.0806 115.688C43.4828 114.873 43.4817 118.745 42.8092 118.269C42.1356 117.794 41.8186 115.774 41.1561 116.31C40.4947 116.845 39.6215 115.538 39.3981 116.408C39.1735 117.278 38.8542 114.76 38.4636 115.373C38.0754 115.985 37.7633 115.687 37.2704 114.914C36.7793 114.14 35.4751 113.584 35.1493 114.642C34.8231 115.701 34.1115 114.014 33.758 113.636C33.6478 113.518 33.5523 113.35 33.4734 113.173C33.4399 113.098 33.4095 112.937 33.3906 112.776C33.3906 112.776 33.3906 112.776 33.3906 112.776C33.367 112.575 33.3612 112.377 33.3895 112.348C33.5266 112.207 33.7145 111.856 33.8965 111.099C34.2361 109.686 34.4664 111.176 35.0582 110.401C35.6496 109.626 35.8941 108.187 36.7929 108.995C37.6903 109.803 37.4421 106.016 38.8107 108.022C40.1769 110.03 39.8512 106.077 40.9295 105.43C42.0101 104.782 43.6717 106.81 44.3425 106.564C45.0144 106.317 45.9036 105.77 46.9482 106.211C47.7872 106.571 48.7133 105.707 49.7042 105.854C49.9342 105.887 50.1577 105.974 50.3831 106.141C51.59 107.025 53.2684 108.236 53.9639 109.099C54.662 109.957 54.7791 110.152 55.5876 109.802C56.0579 109.604 56.5849 109.995 56.7631 111.092C56.857 111.645 56.6321 112.326 56.3333 112.604C55.8998 113.011 55.7267 112.628 55.3859 113.469C54.7121 115.151 54.5418 115.815 54.3883 114.737C54.1993 113.657 53.7458 115.984 53.6081 115.697C53.4572 115.414 53.5658 114.001 52.4435 115.036C51.3463 116.087 50.755 116.395 50.3359 116.668C50.2964 116.694 50.2518 116.707 50.2026 116.71C49.7518 116.737 48.8569 115.836 48.2128 116.282C47.5063 116.771 45.9397 116.51 45.3829 117.283C44.8314 118.055 44.6787 116.503 44.0806 115.688Z" fill="#FFC0CB"/>
<path d="M17.1171 76.7401C16.339 75.7669 15.1728 79.503 14.1604 78.8297C13.1463 78.1561 13.2361 76.1091 11.9479 76.4126C10.6587 76.7158 9.59271 75.1754 8.9429 75.9402C8.28864 76.7047 8.54615 74.1793 7.69585 74.6414C6.84712 75.1036 6.41374 74.7157 5.83549 73.8123C5.25542 72.9086 3.24749 71.9481 2.36136 72.8586C1.47394 73.769 0.823395 71.9157 0.353002 71.4366C0.206381 71.2874 0.100293 71.0949 0.0249865 70.8991C-0.00690942 70.8161 -0.00578909 70.6509 0.0142825 70.4902C0.0142955 70.4901 0.0143086 70.49 0.0143217 70.4899C0.0393457 70.2898 0.0937538 70.0968 0.150403 70.0783C0.425428 69.988 0.85361 69.7127 1.40202 69.0443C2.42574 67.7982 2.33209 69.3049 3.57167 68.7538C4.81297 68.2028 5.67683 66.8991 6.92262 67.9673C8.16842 69.0353 8.94609 65.3128 10.5959 67.6826C12.2459 70.052 12.9372 66.1436 14.907 65.8561C16.8793 65.5691 19.0161 68.0347 20.1886 67.9948C21.3595 67.9549 22.957 67.6837 24.5197 68.3974C26.0877 69.1118 28.2448 68.0367 29.9243 69.1662C30.256 69.3892 30.6209 69.6252 30.9849 69.8652C32.498 70.8459 34.2149 71.9106 35.0888 72.6264C36.1765 73.5174 36.4643 73.7225 37.6005 73.3131C38.2601 73.077 39.0646 73.3701 39.8239 74.3882C40.2051 74.9019 40.1225 75.6171 39.7308 75.9586C39.1499 76.458 38.6716 76.1094 38.333 76.9899C37.6451 78.748 37.2997 79.4147 36.6031 78.3236C35.9137 77.2307 35.3747 79.5533 34.9476 79.2431C34.5317 78.9306 34.6687 77.5539 32.3562 78.3967C31.3871 78.7508 30.6055 78.9775 29.9584 79.1343C29.0764 79.3502 28.4616 79.4355 27.9624 79.5284C27.1022 79.6896 25.5308 78.2889 24.1355 78.5621C22.746 78.8369 20.0732 78.1108 18.8912 78.686C17.7093 79.2615 17.8937 77.713 17.1171 76.7401Z" fill="#FFC0CB"/>
<path d="M54.9284 18.4046C54.4032 16.9589 51.353 19.5121 50.412 18.1712C49.471 16.8302 50.4699 15.0336 48.7628 14.379C47.0559 13.7244 46.4271 11.5585 45.2982 11.7834C44.1692 12.0086 45.5767 9.89507 44.3386 9.70342C43.1006 9.51176 42.7414 8.84806 42.4246 7.60808C42.1078 6.36804 40.0709 4.04764 38.5924 4.23688C37.1138 4.42611 37.1213 2.27061 36.7535 1.49545C36.639 1.254 36.5927 1.00251 36.5855 0.7701C36.5826 0.671597 36.6555 0.522061 36.7496 0.39028C36.7496 0.390194 36.7497 0.390108 36.7498 0.390023C36.867 0.22596 37.017 0.0894791 37.0942 0.113349C37.4692 0.229162 38.1117 0.287177 39.0718 0.0743347C40.8619 -0.322561 40.0952 0.981343 41.8496 1.37349C43.6039 1.76561 45.2274 1.20395 46.2861 3.07319C47.3447 4.94235 49.9118 2.11819 50.9008 5.46428C51.8898 8.81022 54.4292 5.75288 56.9653 6.91658C59.5013 8.08033 61.0446 11.8704 62.4941 12.6829C63.9436 13.4954 66.0172 14.4091 67.6186 16.1958C69.2199 17.9825 72.3396 18.588 73.9004 20.8499C75.4612 23.1117 77.7495 26.1949 78.6641 27.819C79.5787 29.443 79.8099 29.8271 81.4127 30.3788C82.334 30.6959 83.229 31.6566 83.5204 33.1186C83.667 33.8544 83.1505 34.3642 82.5037 34.3226C81.5578 34.2617 81.2143 33.6056 80.3574 34.0916C78.6449 35.063 77.96 35.4157 77.7127 33.9617C77.4653 32.5078 75.6912 34.1432 75.3529 33.5675C75.0146 32.9916 75.8325 31.8638 72.6848 30.9345C69.537 30.0052 67.9942 29.2398 66.8887 28.7668C65.7831 28.2938 64.4902 25.8844 62.6789 25.1269C60.8676 24.3694 57.9334 21.782 56.2415 21.4516C54.5498 21.1212 55.4536 19.8504 54.9284 18.4046Z" fill="#FFC0CB"/>
<path d="M126.318 14.4815C127.229 14.2609 123.456 13.4456 124.055 13.1035C124.653 12.7614 126.684 12.9874 126.298 12.4425C125.912 11.8975 127.363 11.6148 126.563 11.2825C125.763 10.95 128.278 11.2864 127.764 10.9032C127.249 10.52 127.603 10.3829 128.458 10.2342C129.312 10.0854 130.126 9.36961 129.165 8.92979C128.204 8.48997 129.993 8.40044 130.435 8.25603C130.573 8.21105 130.756 8.18634 130.944 8.17427C131.024 8.16917 131.188 8.18489 131.348 8.20779C131.348 8.2078 131.348 8.20782 131.348 8.20783C131.548 8.23635 131.743 8.27599 131.765 8.3004C131.873 8.41891 132.174 8.61602 132.873 8.89778C134.175 9.42314 132.678 9.24641 133.308 9.79454C133.937 10.3427 135.285 10.8106 134.313 11.2108C133.341 11.6111 137.076 12.2685 134.843 12.7105C132.61 13.1526 136.523 13.7916 136.939 14.6094C137.354 15.4272 135.055 16.0561 135.171 16.5297C135.286 17.0034 135.657 17.6704 135.049 18.2316C134.44 18.7928 135.635 19.7636 134.611 20.3327C133.587 20.9017 132.278 21.7262 131.431 22.0724C130.584 22.4186 130.391 22.505 130.806 23.014C131.045 23.3066 130.736 23.6186 129.684 23.7691C129.154 23.8449 128.451 23.7101 128.134 23.5124C127.67 23.2233 128.026 23.0913 127.158 22.8524C125.422 22.375 124.757 22.1826 125.827 22.0458C126.896 21.9089 124.577 21.4411 124.87 21.3141C125.163 21.1871 126.542 21.3869 125.599 20.3938C124.657 19.4007 124.451 18.9008 124.242 18.5458C124.032 18.1907 125.324 17.6965 124.966 17.1155C124.609 16.5346 125.155 15.5356 124.509 15.0091C123.862 14.4825 125.406 14.7022 126.318 14.4815Z" fill="#FFC0CB"/>
</svg>
