<svg width="118" height="38" viewBox="0 0 118 38" fill="none" xmlns="http://www.w3.org/2000/svg">
<path d="M0 37.928V0H8.6475V24.6856C8.93103 24.1578 9.28544 23.5821 9.71072 22.9583C10.1833 22.3346 10.5849 21.8308 10.9157 21.447L26.9348 0H34.59V37.928H26.0134V13.5303C25.6354 14.154 25.2337 14.7538 24.8084 15.3295C24.4304 15.8573 24.0523 16.3611 23.6743 16.8409L7.86781 37.928H0Z" fill="#1E1E1E"/>
<path d="M39.7959 38V30.0833C40.8355 30.0833 41.7333 29.8434 42.4894 29.3636C43.2455 28.8359 43.8834 28.1402 44.4032 27.2765C45.0175 26.221 45.4664 24.8775 45.7499 23.2462C46.0334 21.6149 46.2225 19.9596 46.317 18.2803C46.4587 16.1212 46.5532 13.9621 46.6005 11.803C46.695 9.59596 46.7659 7.48485 46.8131 5.4697C46.9077 3.40656 46.9549 1.58333 46.9549 0H75.0239V37.928H66.3764V7.77273H54.9645C54.9172 9.35606 54.8463 11.0354 54.7518 12.8106C54.7046 14.5859 54.6337 16.3851 54.5392 18.2083C54.4447 19.9836 54.2793 21.7109 54.043 23.3902C53.854 25.2614 53.5232 27.1566 53.0507 29.0758C52.6254 30.995 51.8693 32.7222 50.7825 34.2576C49.6484 35.697 48.2308 36.6806 46.5296 37.2083C44.8757 37.7361 42.6312 38 39.7959 38Z" fill="#1E1E1E"/>
<path d="M83.41 37.928V0H92.0575V24.6856C92.341 24.1578 92.6954 23.5821 93.1207 22.9583C93.5932 22.3346 93.9949 21.8308 94.3257 21.447L110.345 0H118V37.928H109.423V13.5303C109.045 14.154 108.644 14.7538 108.218 15.3295C107.84 15.8573 107.462 16.3611 107.084 16.8409L91.2778 37.928H83.41Z" fill="#1E1E1E"/>
</svg>
