<svg width="48" height="48" viewBox="0 0 48 48" fill="none" xmlns="http://www.w3.org/2000/svg">
<g clip-path="url(#clip0_118_2203)">
<path fill-rule="evenodd" clip-rule="evenodd" d="M8.72727 0C6.41266 0 4.19284 0.919478 2.55616 2.55616C0.919478 4.19284 0 6.41266 0 8.72727V39.2727C0 41.5873 0.919478 43.8072 2.55616 45.4438C4.19284 47.0805 6.41266 48 8.72727 48H39.2727C41.5873 48 43.8072 47.0805 45.4438 45.4438C47.0805 43.8072 48 41.5873 48 39.2727V8.72727C48 6.41266 47.0805 4.19284 45.4438 2.55616C43.8072 0.919478 41.5873 0 39.2727 0H8.72727ZM41.4545 24C41.4545 28.6292 39.6156 33.0689 36.3422 36.3422C33.0689 39.6156 28.6292 41.4545 24 41.4545C19.3708 41.4545 14.9311 39.6156 11.6578 36.3422C8.38441 33.0689 6.54545 28.6292 6.54545 24C6.54545 19.3708 8.38441 14.9311 11.6578 11.6578C14.9311 8.38441 19.3708 6.54545 24 6.54545C28.6292 6.54545 33.0689 8.38441 36.3422 11.6578C39.6156 14.9311 41.4545 19.3708 41.4545 24ZM12.0698 23.4851C12.0698 23.3236 12.1767 23.1687 12.3273 23.1142L31.8829 15.6589C31.9508 15.6352 32.0238 15.6295 32.0946 15.6425C32.1653 15.6556 32.2315 15.6868 32.2865 15.7331C32.3956 15.8269 32.4436 15.9818 32.4109 16.1236L28.5098 32.5265C28.4952 32.5905 28.4647 32.6498 28.4213 32.6989C28.3778 32.7481 28.3228 32.7856 28.2611 32.808C28.2 32.8312 28.134 32.8387 28.0693 32.8299C28.0045 32.8212 27.9429 32.7964 27.8902 32.7578L20.5265 26.8276L27.0982 20.9324C27.1403 20.8936 27.1671 20.8411 27.1739 20.7843C27.1807 20.7275 27.167 20.6701 27.1353 20.6225C27.1025 20.5753 27.0539 20.5414 26.9982 20.527C26.9426 20.5126 26.8836 20.5186 26.832 20.544L17.0684 25.5862L12.3273 23.856C12.2531 23.8257 12.1893 23.7745 12.1436 23.7087C12.0979 23.6428 12.0723 23.5652 12.0698 23.4851Z" fill="#15A6EF"/>
</g>
<defs>
<clipPath id="clip0_118_2203">
<rect width="48" height="48" fill="white"/>
</clipPath>
</defs>
</svg>
