<svg width="48" height="48" viewBox="0 0 48 48" fill="none" xmlns="http://www.w3.org/2000/svg">
<g clip-path="url(#clip0_118_2201)">
<path d="M9.86786 23.85C9.86786 26.5179 10.6179 29.1214 12.0321 31.3607L12.3643 31.8964L10.9393 37.1036L16.2857 35.7L16.8 36.0107C18.9643 37.2964 21.45 37.9821 23.9893 37.9821H24C31.7786 37.9821 38.2821 31.65 38.2821 23.8607C38.2821 20.0893 36.6536 16.5429 33.9857 13.875C31.3071 11.1964 27.7714 9.72857 24 9.72857C16.2107 9.72857 9.87857 16.0607 9.86786 23.85ZM29.4429 31.9286C28.0929 32.1321 27.0429 32.025 24.3536 30.8679C20.4107 29.1643 17.7321 25.35 17.1857 24.5786C17.1429 24.5143 17.1107 24.4821 17.1 24.4607C16.8857 24.1821 15.3643 22.1571 15.3643 20.0679C15.3643 18.0964 16.3286 17.0786 16.7786 16.6071C16.8107 16.575 16.8321 16.5536 16.8536 16.5214C17.2393 16.0929 17.7 15.9857 17.9893 15.9857C18.2679 15.9857 18.5571 15.9857 18.8036 15.9964H18.8893C19.1357 15.9964 19.4464 15.9964 19.7571 16.725C19.8857 17.0357 20.0786 17.5071 20.2821 17.9893C20.6357 18.8464 21 19.7357 21.0643 19.875C21.1714 20.0893 21.2464 20.3357 21.0964 20.6143C20.7321 21.3429 20.3571 21.7286 20.1 22.0071C19.7679 22.35 19.6179 22.5107 19.8536 22.9286C21.4929 25.7464 23.1321 26.7214 25.6286 27.975C26.0571 28.1893 26.3036 28.1571 26.55 27.8679C26.7964 27.5893 27.6107 26.625 27.8893 26.2071C28.1679 25.7786 28.4571 25.8536 28.8429 25.9929C29.2286 26.1321 31.3179 27.1607 31.7464 27.375C31.8321 27.4179 31.9071 27.45 31.9714 27.4821C32.2714 27.6321 32.475 27.7286 32.5607 27.8679C32.6571 28.0714 32.6571 28.9286 32.3036 29.9143C31.95 30.9107 30.2571 31.8107 29.4429 31.9286ZM48 6.85714C48 3.075 44.925 0 41.1429 0H6.85714C3.075 0 0 3.075 0 6.85714V41.1429C0 44.925 3.075 48 6.85714 48H41.1429C44.925 48 48 44.925 48 41.1429V6.85714ZM15.8679 38.775L6.85714 41.1429L9.26786 32.3357C7.77857 29.7643 6.99643 26.8393 6.99643 23.8393C7.00714 14.475 14.625 6.85714 23.9893 6.85714C28.5321 6.85714 32.7964 8.625 36.0107 11.8393C39.2143 15.0536 41.1429 19.3179 41.1429 23.8607C41.1429 33.225 33.3536 40.8429 23.9893 40.8429C21.1393 40.8429 18.3429 40.125 15.8679 38.775Z" fill="#04E061"/>
</g>
<defs>
<clipPath id="clip0_118_2201">
<rect width="48" height="48" fill="white"/>
</clipPath>
</defs>
</svg>
